<?xml version="1.0" encoding="UTF-8" standalone="no"?>
<!-- Created with Inkscape (http://www.inkscape.org/) -->

<svg
   width="297mm"
   height="210mm"
   viewBox="0 0 297 210"
   version="1.1"
   id="svg1"
   inkscape:version="1.4.2 (f4327f4, 2025-05-13)"
   sodipodi:docname="maestria.svg"
   xmlns:inkscape="http://www.inkscape.org/namespaces/inkscape"
   xmlns:sodipodi="http://sodipodi.sourceforge.net/DTD/sodipodi-0.dtd"
   xmlns="http://www.w3.org/2000/svg"
   xmlns:svg="http://www.w3.org/2000/svg">
  <sodipodi:namedview
     id="namedview1"
     pagecolor="#ffffff"
     bordercolor="#000000"
     borderopacity="0.25"
     inkscape:showpageshadow="2"
     inkscape:pageopacity="0.0"
     inkscape:pagecheckerboard="0"
     inkscape:deskcolor="#d1d1d1"
     inkscape:document-units="mm"
     inkscape:zoom="0.48693448"
     inkscape:cx="799.90229"
     inkscape:cy="249.52023"
     inkscape:current-layer="layer2"
     inkscape:window-width="1366"
     inkscape:window-height="705"
     inkscape:window-x="-8"
     inkscape:window-y="-8"
     inkscape:window-maximized="1" />
  <defs
     id="defs1" />
  <g
     inkscape:groupmode="layer"
     id="layer2"
     inkscape:label="Logo"
     transform="translate(-69.007402,41.839134)">
    <path
       style="clip-rule:evenodd;display:inline;fill:#000000;fill-rule:evenodd;stroke:none;stroke-width:0.0435557;stroke-dasharray:none;image-rendering:optimizeQuality;shape-rendering:geometricPrecision;text-rendering:geometricPrecision"
       d="M 122.50208,87.719578 H 300.80939 M 250.72731,51.856791 c 0,1.549227 -0.23176,2.432013 -1.76168,3.156156 -0.71641,0.339086 -1.7757,0.291393 -2.17102,1.106286 -0.31221,0.643566 0.15767,2.60311 0.15767,3.413454 v 8.053398 c 0,1.01447 -0.27658,2.516909 0.34012,3.391994 0.74207,1.052971 2.31957,0.760536 3.43491,0.760536 0,0.735076 0.39567,3.298368 -0.20176,3.771541 -0.50071,0.396564 -1.95041,0.129326 -2.5666,0.129326 -2.28174,0 -6.16305,0.336085 -7.16848,-2.390853 -0.31468,-0.853501 -0.12992,-1.997665 -0.12992,-2.894191 V 64.566062 44.558404 c 1.71874,0 4.09257,-0.477557 5.39768,0.886276 1.1291,1.179885 0.89405,2.773763 0.89405,4.27293 0,0.51113 -0.19344,1.542223 0.20176,1.937427 0.58293,0.582924 2.78079,0.201754 3.57327,0.201754 m 25.79604,-3.27169 c -1.85367,-0.344124 -4.31219,-0.344128 -6.16588,0 l -0.12583,-4.026697 c 1.79567,0 5.19363,-0.68408 6.08558,1.38466 0.34417,0.798267 0.20613,1.793747 0.20613,2.642037 M 163.77576,76.016983 c -1.36377,-0.02814 -3.25868,0.139902 -4.53004,-0.368665 -2.29548,-0.918217 -1.88752,-2.971868 -1.88752,-5.042211 v -8.93423 c 0,-1.315966 0.39678,-2.748191 -0.40566,-3.89902 -1.74238,-2.498887 -7.06304,-2.50041 -8.20564,0.627323 -0.52071,1.425386 -0.0713,3.756334 -0.0713,5.285044 v 12.205927 h -4.40421 c -0.44432,0 -1.3158,0.163671 -1.68575,-0.129326 -0.31727,-0.251288 -0.20172,-0.902142 -0.20176,-1.254851 v -3.271697 -9.940906 c 0,-1.772329 0.33392,-3.232535 -1.25843,-4.46343 -2.06412,-1.595566 -6.95784,-1.237797 -7.37782,1.946739 -0.14974,1.135378 0.0795,2.487556 0.0795,3.649198 v 8.55673 c 0,1.203925 0.455,3.536889 -0.0759,4.615869 -0.2184,0.443845 -1.03285,0.291674 -1.43409,0.291674 -1.20391,0 -3.53689,0.455003 -4.61586,-0.07593 -0.42203,-0.207658 -0.29165,-0.926073 -0.29168,-1.308248 v -4.026698 c 0,-5.023335 -1.30492,-12.383633 2.52174,-16.357983 2.81503,-2.923675 8.04002,-3.397353 11.82338,-2.45736 1.20639,0.299737 2.62624,1.429655 3.77504,1.531668 0.85068,0.07555 2.25388,-1.02984 3.14585,-1.260573 2.2733,-0.58806 4.97649,-0.728063 7.2984,-0.320323 1.0796,0.189587 2.15652,0.493261 3.14585,0.968911 4.98636,2.397293 4.65588,8.06735 4.65588,12.736453 v 10.695914 m 4.02669,-18.37181 c 0.0517,-2.42523 2.02368,-4.513182 4.15254,-5.4269 4.01263,-1.722232 11.50089,-1.577567 14.57359,1.903633 1.66032,1.881068 1.40738,4.343083 1.40738,6.669127 0,4.852624 0.74528,10.261072 -3.90087,13.398833 -4.88171,3.296845 -14.40632,3.398852 -16.92734,-2.954589 -0.36859,-0.928906 -0.3587,-2.048503 -0.22021,-3.020017 0.78239,-5.48842 5.93182,-6.516332 10.60417,-7.082651 1.73351,-0.21011 5.26103,-1.193018 4.36866,-3.739106 -0.80184,-2.287785 -4.98659,-2.221471 -6.75952,-1.394859 -0.70865,0.330406 -1.23712,1.041377 -2.01335,1.219413 -1.73052,0.396907 -3.52018,-0.041 -5.28505,0.427116 m 45.67788,7.424227 h -11.07342 c -1.27622,0 -3.5014,-0.426747 -4.65043,0.165837 -1.02234,0.527238 -0.3762,1.637718 -0.2006,2.476685 0.49719,2.375453 2.10267,4.109524 4.59936,4.203606 2.36317,0.08905 3.23301,-1.719757 5.15921,-2.506981 1.58574,-0.648084 4.08863,-0.186617 5.78838,-0.186617 -0.13763,0.995894 -0.90377,1.560541 -1.40972,2.390853 -3.05819,5.018786 -10.08193,6.302435 -15.20042,3.608906 -5.10569,-2.686801 -6.16405,-8.982409 -5.50078,-14.178987 0.32035,-2.509902 1.17724,-5.071122 3.00555,-6.899436 3.64928,-3.649279 11.38826,-3.891637 15.45617,-0.837632 3.38732,2.543048 4.53448,7.742328 4.0267,11.763766 m 23.53103,-6.165882 c -1.70285,-0.478534 -3.82788,0.178635 -5.4104,-0.699377 -0.56403,-0.312934 -0.81678,-0.826381 -1.19949,-1.313483 -1.26315,-1.607715 -3.72529,-1.81131 -5.59604,-1.354567 -1.71475,0.418654 -2.4952,1.763718 -1.61828,3.367327 0.72404,1.32401 2.65084,1.794201 4.00913,2.109674 4.42216,1.027063 10.69554,1.947976 10.69592,7.7055 0,0.810669 0.0265,1.656151 -0.37313,2.390853 -2.84045,5.222288 -9.78309,6.127637 -15.1045,4.797631 -3.39776,-0.849226 -6.54338,-3.630453 -6.54338,-7.314315 h 6.41755 c 0.44074,3.270337 3.25923,3.716547 6.04006,3.647351 1.66335,-0.04137 3.64629,-1.335117 3.26371,-3.269851 -0.36393,-1.84057 -3.76828,-2.514506 -5.27707,-2.818648 -3.19437,-0.643927 -6.33021,-1.293215 -8.47304,-3.976404 -0.7862,-0.984449 -1.41216,-1.952199 -1.31883,-3.271691 0.0596,-0.84215 0.20554,-1.720424 0.49148,-2.516684 0.82704,-2.302974 3.00709,-3.811029 5.27369,-4.47664 5.35026,-1.571157 14.70271,-0.223751 14.72262,6.993324 m 43.5387,-1.258345 c 0.0514,-2.413755 2.03476,-4.517943 4.15253,-5.4269 4.0138,-1.722734 11.50278,-1.575433 14.57358,1.903633 1.78829,2.026044 1.40739,4.800444 1.40739,7.298296 0,4.214763 0.50694,8.031507 -2.42864,11.450927 -4.38978,5.113348 -14.95699,4.797668 -18.22062,-1.258346 -0.5339,-0.990689 -0.5018,-2.189541 -0.38596,-3.271691 0.64301,-6.006274 6.52428,-6.587619 11.34598,-7.315288 1.6139,-0.243564 4.56152,-1.566431 3.57519,-3.758045 -0.96277,-2.139271 -4.93191,-2.103496 -6.72106,-1.269115 -0.71753,0.334631 -1.2165,1.071579 -2.01345,1.226215 -1.76293,0.342057 -3.50665,-0.05136 -5.28494,0.420314 M 267.21159,51.85679 v 5.536712 c -2.395,0 -4.98422,-0.07363 -6.6201,2.013353 -1.11848,1.426909 -0.72136,3.596781 -0.68013,5.285038 0.0892,3.650234 0.33349,7.5796 -0.124,11.199257 h -6.29171 c 0,-7.870606 -2.35304,-20.577176 7.55005,-23.416547 2.03316,-0.582931 4.06941,-0.617813 6.16589,-0.617813 m 9.31174,24.03436 h -6.16588 l -0.12583,-24.03436 c 1.62866,0 4.40632,-0.543175 5.63564,0.768218 1.27563,1.360776 0.65607,4.544194 0.65607,6.278509 V 75.891151 M 197.49937,61.54604 h 9.31174 c -0.12708,-1.612364 0.14339,-3.023698 -0.94744,-4.402358 -1.93506,-2.445648 -6.07502,-1.977778 -7.72193,0.501491 -0.82595,1.243394 -0.63187,2.501308 -0.64237,3.900867 m -16.73598,2.078592 c -2.21181,0.45383 -6.06736,1.049989 -7.47986,2.954876 -0.95392,1.286445 -0.37259,4.189958 0.93697,5.07066 0.89526,0.602075 2.25631,0.558893 3.27121,0.364683 2.59594,-0.496755 3.93607,-2.27933 4.32992,-4.806273 0.17425,-1.117943 0.8521,-3.975911 -1.05824,-3.583946 m 112.7476,0 c -2.2148,0.455334 -6.05728,1.050413 -7.47986,2.955263 -0.93531,1.252386 -0.36449,4.210307 0.93697,5.055708 0.92193,0.598868 2.23087,0.578326 3.2712,0.379248 2.58653,-0.494958 3.9548,-2.277371 4.34897,-4.806273 0.17857,-1.145649 0.85864,-3.981932 -1.07728,-3.583946 z"
       id="path31-8"
       sodipodi:nodetypes="cccssssscssssccsssccccsccsssssscssccsssssssscssssssssccssssssssssccssssscsssssccssssscssccsssssssccsssssssssscccssccsccccsscccssccsssscssssss" />
    <path
       style="clip-rule:evenodd;display:inline;fill:#a09fa2;fill-rule:evenodd;stroke:none;stroke-width:0;stroke-dasharray:none;image-rendering:optimizeQuality;shape-rendering:geometricPrecision;text-rendering:geometricPrecision"
       d="m 270.44473,48.512306 -0.1651,0.825512 6.27389,0.165102 v -0.990614 h -6.10879 m -20.1425,5.448378 c -1.08309,0.856567 -3.34045,1.229394 -3.63225,2.641639 1.2452,-0.477118 4.05712,-0.578076 3.63225,-2.641639 m -27.5721,3.632253 c 2.0894,-0.955464 4.5239,-2.166946 6.76665,-0.553272 0.90912,0.654118 1.19691,1.792834 2.31462,2.186334 1.5411,0.542551 3.66267,0.183066 5.28264,0.183066 -0.48803,-1.484842 -3.54983,-0.625251 -4.78797,-1.027687 -1.19437,-0.388214 -1.55195,-1.48637 -2.47909,-2.205191 -1.79698,-1.393206 -6.7749,-1.473785 -7.09685,1.41675 m -54.97911,0.495307 c 1.38849,0.330575 4.56175,0.64213 5.89005,0.06561 1.51107,-0.655852 2.1235,-1.703519 4.0161,-1.703638 1.8338,-1.18e-4 2.80921,0.793758 4.29266,1.63803 -0.15934,-2.910384 -4.72624,-3.043448 -6.7692,-2.166079 -0.86778,0.372683 -1.51503,1.176307 -2.47654,1.309358 -1.40714,0.19471 -4.14456,-0.623884 -4.95307,0.856721 m 112.59986,0 c 1.38992,0.410841 4.56762,0.57231 5.94369,0.06548 1.53073,-0.563786 2.1455,-1.619272 3.96246,-1.699301 1.91002,-0.08413 2.92617,0.762171 4.45776,1.633824 -0.15938,-2.910378 -4.72622,-3.04346 -6.7692,-2.166079 -0.86778,0.372683 -1.51503,1.176307 -2.47654,1.309358 -1.49093,0.206304 -4.16274,-0.618517 -5.11817,0.856721 m -82.88142,1.981228 h 0.1651 c 1.09791,-2.623177 3.95355,-4.718337 6.7692,-2.972735 1.08339,0.671671 1.47874,1.990945 2.47654,2.642529 -0.36298,-1.469386 -0.76708,-2.719781 -2.14634,-3.553139 -3.07348,-1.857041 -7.18832,0.307113 -7.2645,3.883345 m -63.72954,-0.825514 c 0.65391,-0.554513 1.05259,-1.310593 1.81625,-1.756123 2.46879,-1.440325 5.39891,-0.389332 6.76907,1.92123 0.51767,-1.329476 -0.85489,-2.658659 -1.98123,-3.121405 -2.49716,-1.025933 -6.45855,-0.221186 -6.60409,2.956298 m 14.85922,-0.1651 c 0.8575,-0.457629 1.39051,-1.32751 2.31143,-1.728099 2.38151,-1.035936 5.32109,-0.125988 6.439,2.223406 0.5713,-1.403958 -0.96815,-2.766519 -2.14634,-3.224847 -2.42441,-0.94314 -6.15537,-0.251039 -6.60409,2.72954 m 111.27904,2.311435 c 1.79625,-1.646135 2.49477,-2.77513 5.11817,-2.985989 0.41416,-0.03326 2.05693,0.0062 2.15933,-0.509191 0.1432,-0.720662 -2.56488,-0.481279 -2.98484,-0.439121 -2.22722,0.223551 -4.10327,1.618679 -4.29266,3.934301 m 40.7803,-1.651027 0.1651,0.165106 -0.1651,-0.165106 m 0,1.320821 0.1651,0.1651 -0.1651,-0.1651 m -83.54183,0.1651 c 0.44712,5.082622 7.78918,5.215348 11.39206,6.451991 1.19005,0.408457 2.10175,1.121213 3.13695,1.80313 -0.10155,-1.855198 -1.93869,-2.425292 -3.46715,-2.915027 -2.55873,-0.819848 -5.40162,-0.879846 -7.75981,-2.278057 -1.35678,-0.804448 -2.20244,-1.984698 -3.30205,-3.062037 m 83.54183,0.330207 0.1651,0.1651 -0.1651,-0.1651 m -127.78929,6.604093 h 0.1651 c 1.52543,-2.227244 3.87538,-2.398703 6.2739,-3.141149 0.82182,-0.25439 1.91752,-0.962416 2.64164,-0.326001 0.27847,-0.804017 -0.39782,-1.202503 -1.15584,-1.09941 -2.56044,0.348234 -7.84807,1.377955 -7.9248,4.56656 m 112.76497,0 h 0.1651 c 2.07131,-2.718252 5.57753,-2.802156 8.58533,-3.962457 l 0.3302,0.660413 c 0.29103,-0.752199 -0.17584,-1.33166 -0.99125,-1.283112 -0.7809,0.04649 -1.55883,0.443177 -2.3108,0.641806 -2.2719,0.600115 -5.70835,0.956662 -5.77858,3.94335 m 15.02432,-4.457765 0.1651,0.165107 -0.1651,-0.165107 m 0,0.660414 0.1651,0.1651 -0.1651,-0.1651 m -103.51923,1.651022 16.34514,-0.1651 c -0.2224,-1.332634 -2.58515,-0.825514 -3.63225,-0.825514 h -9.57594 c -1.10221,0 -2.74284,-0.319237 -3.13695,0.990614 m -5.44838,3.797356 0.1651,0.165101 -0.1651,-0.165101 m 0.1651,0.330201 c 1.42488,6.156154 8.28731,8.259458 13.86861,6.872386 3.16221,-0.785877 6.25609,-3.119041 6.7692,-6.542179 h -0.1651 c -1.09484,1.654572 -2.10462,3.268852 -3.79736,4.39789 -3.38057,2.254794 -8.96825,2.137318 -12.38268,0.02153 -2.00025,-1.239476 -2.71767,-3.196043 -4.29267,-4.749626 m -4.78796,0.330207 c -4.05248,6.591656 -14.78825,8.35938 -19.4821,1.485921 h -0.1651 c 0.98911,6.59867 11.09957,6.038722 15.51963,3.828695 1.61442,-0.807206 4.61026,-3.192961 4.12757,-5.314616 m 112.76496,0 c -3.10361,5.048207 -10.27616,7.50913 -15.84984,4.899693 -1.78753,-0.836877 -2.52918,-2.395214 -3.96246,-3.578872 1.79952,6.206431 9.63169,6.292488 14.69412,4.387569 1.84368,-0.693754 5.85118,-3.222675 5.11818,-5.70839 m -83.37673,0.990614 c 0.39564,2.639571 2.74936,4.292882 5.11817,5.10518 4.97571,1.70624 14.38145,1.076883 15.84983,-5.10518 -1.35398,1.118162 -2.1753,2.628326 -3.79735,3.48524 -3.66153,1.934353 -9.91806,2.034725 -13.5384,-0.02521 -1.55262,-0.883434 -2.34696,-2.319329 -3.63225,-3.460017 m 24.60026,2.311435 c 0.37614,3.648481 6.98108,3.123377 9.57594,2.641636 v -0.825514 c -3.62254,0 -6.52038,0.310656 -9.57594,-1.816122 m -83.21163,0.990614 -0.1651,0.1651 c 0.90182,2.418959 3.83832,1.816129 5.94369,1.816129 v -0.825514 c -2.26893,0 -3.73889,-0.146674 -5.77859,-1.155715 m -30.37885,1.981229 h 6.2739 v -0.825514 c -1.3432,-0.249367 -5.99331,-0.893375 -6.2739,0.825514 m 15.02433,-0.825514 v 0.825514 h 6.27389 c -0.48194,-1.722352 -4.841,-1.091536 -6.27389,-0.825514 m 111.11394,0.825514 h 6.10878 c -0.12741,-1.597856 -5.98137,-1.597856 -6.10878,0 m 16.67534,0 h 6.27389 v -0.825514 c -1.4479,-0.268811 -5.79719,-0.900632 -6.27389,0.825514 z"
       id="path32-2" />
  </g>
</svg>
